<svg width="400" height="400" viewBox="0 0 400 400" xmlns="http://www.w3.org/2000/svg">
  <!-- Background with swirling colors -->
  <defs>
    <radialGradient id="swirl" cx="50%" cy="50%" r="50%" fx="50%" fy="50%">
      <stop offset="0%" stop-color="#f9e4b7" />
      <stop offset="40%" stop-color="#e67e22" />
      <stop offset="70%" stop-color="#c0392b" />
      <stop offset="100%" stop-color="#34495e" />
    </radialGradient>
    
    <filter id="swirl-effect" x="-50%" y="-50%" width="200%" height="200%">
      <feTurbulence type="fractalNoise" baseFrequency="0.01" numOctaves="3" result="noise" />
      <feDisplacementMap in="SourceGraphic" in2="noise" scale="50" xChannelSelector="R" yChannelSelector="G" />
    </filter>
  </defs>
  
  <!-- Swirling background -->
  <rect width="400" height="400" fill="url(#swirl)" filter="url(#swirl-effect)" />
  
  <!-- Silhouette of person -->
  <path d="M200,150 C230,150 250,180 250,220 L240,300 L160,300 L150,220 C150,180 170,150 200,150 Z" fill="#000" opacity="0.8" />
  <ellipse cx="200" cy="130" rx="30" ry="40" fill="#000" opacity="0.8" />
  
  <!-- Hand reaching out -->
  <path d="M150,200 C120,180 100,190 80,210 C70,220 65,230 60,240" stroke="#000" stroke-width="15" fill="none" stroke-linecap="round" />
  <path d="M60,240 C55,245 50,245 45,240" stroke="#000" stroke-width="8" fill="none" stroke-linecap="round" />
  <path d="M60,240 C60,250 58,255 52,258" stroke="#000" stroke-width="8" fill="none" stroke-linecap="round" />
  <path d="M60,240 C70,245 75,250 75,260" stroke="#000" stroke-width="8" fill="none" stroke-linecap="round" />
  
  <!-- Glass with red liquid -->
  <path d="M300,300 L320,200 L280,200 Z" fill="none" stroke="#fff" stroke-width="2" />
  <path d="M300,300 L320,200 L280,200 Z" fill="#c0392b" opacity="0.8" />
  <rect x="280" y="300" width="40" height="10" fill="#fff" opacity="0.8" />
  
  <!-- Reflection in glass -->
  <ellipse cx="300" cy="230" rx="10" ry="5" fill="#fff" opacity="0.3" />
</svg>